<svg xmlns="http://www.w3.org/2000/svg" data-name="Layer 1" viewBox="0 0 64 80" x="0px" y="0px"><title>Shopping Ecommerce tnp</title><path d="M26.893,57.9a1,1,0,0,0,.989.019l9.191-5a1,1,0,0,0,.523-.878V35.479L61.755,7.61A1,1,0,0,0,61,5.955H3A1,1,0,0,0,2.245,7.61L26.4,35.448v21.6A1,1,0,0,0,26.893,57.9ZM5.192,7.955H58.81l-22.97,26.5a1,1,0,0,0-.244.654V51.454L28.4,55.363V35.075a1,1,0,0,0-.244-.656Z"/><path d="M28.439,28.521,16.564,15.091a1,1,0,1,0-1.5,1.325l11.875,13.43a1,1,0,0,0,1.5-1.325Z"/><path d="M12.672,10.689a1,1,0,1,0-1.5,1.326l.951,1.075a1,1,0,1,0,1.5-1.325Z"/><text x="0" y="79" fill="#000000" font-size="5px" font-weight="bold" font-family="'Helvetica Neue', Helvetica, Arial-Unicode, Arial, Sans-serif">Created by Nur syifa fauziah</text><text x="0" y="84" fill="#000000" font-size="5px" font-weight="bold" font-family="'Helvetica Neue', Helvetica, Arial-Unicode, Arial, Sans-serif">from the Noun Project</text></svg>