<svg xmlns="http://www.w3.org/2000/svg" xmlns:xlink="http://www.w3.org/1999/xlink" version="1.1" x="0px" y="0px" viewBox="0 0 100 125" style="enable-background:new 0 0 100 100;" xml:space="preserve"><style type="text/css">
	.st0{fill:#010101;}
</style><g><path class="st0" d="M53.7,45.9v29.8L38.3,88.6V46L17.5,22.3h32.4c0-1.1,0.1-2.2,0.2-3.2H10.4l24.7,28.1v48.2l21.8-18.2V47.1   l4.2-4.8c-0.9-0.6-1.8-1.2-2.6-1.9L53.7,45.9z"/><path class="st0" d="M73.2,3.5c-10.4,0-18.8,8.4-18.8,18.8s8.4,18.8,18.8,18.8S92,32.7,92,22.3S83.5,3.5,73.2,3.5z M73.2,37.9   c-8.6,0-15.6-7-15.6-15.6s7-15.6,15.6-15.6s15.6,7,15.6,15.6S81.8,37.9,73.2,37.9z"/><path class="st0" d="M81.1,15.8c-0.4,0-0.7,0.2-1,0.4l-9.3,9.5l-4.8-4.9c-0.3-0.2-0.6-0.4-1-0.4c-0.7,0-1.3,0.6-1.3,1.4   c0,0.4,0.2,0.7,0.4,1l5.8,5.9c0.3,0.2,0.6,0.4,1,0.4s0.7-0.2,1-0.4l10.2-10.4c0.2-0.2,0.4-0.6,0.4-1C82.5,16.4,81.9,15.8,81.1,15.8   z"/></g></svg>