<svg xmlns="http://www.w3.org/2000/svg" viewBox="0 0 64 80" x="0px" y="0px"><g data-name="Delete Filter"><path d="M50.3809,11.8135H13.62a3.0033,3.0033,0,0,0-3,3v1.0976a2.9956,2.9956,0,0,0,2.5627,2.9558l14.075,15.5755V51.1865a.9993.9993,0,0,0,1.4282.9033l7.4854-3.5478a.9992.9992,0,0,0,.5713-.9033V34.4424L50.8177,18.8669a2.9955,2.9955,0,0,0,2.5632-2.9558V14.8135A3.0033,3.0033,0,0,0,50.3809,11.8135ZM35,33.3867a1.0023,1.0023,0,0,0-.2578.6709V47.0059l-5.4849,2.6V34.0576A1.0023,1.0023,0,0,0,29,33.3867l-13.08-14.4756H48.0809ZM51.3809,15.9111a1.0007,1.0007,0,0,1-1,1H13.62a1.001,1.001,0,0,1-1-1V14.8135a1.001,1.001,0,0,1,1-1H50.3809a1.0007,1.0007,0,0,1,1,1ZM50.41,36.3467l-2.7189,2.7192L50.41,41.7852a1,1,0,1,1-1.4141,1.414L46.2773,40.48l-2.7187,2.7191a1,1,0,0,1-1.4141-1.414l2.7189-2.7193-2.7189-2.7192a1,1,0,0,1,1.4141-1.4141l2.7187,2.7191,2.7188-2.7191A1,1,0,0,1,50.41,36.3467Z"/></g></svg>